<mxfile host="app.diagrams.net" modified="2024-02-06T12:29:14.366Z" agent="Mozilla/5.0 (Macintosh; Intel Mac OS X 10_15_7) AppleWebKit/537.36 (KHTML, like Gecko) Chrome/121.0.0.0 Safari/537.36" etag="YGXwq-CethUhBnZiB_gv" version="23.0.2" type="github" pages="2">
  <diagram name="Page-1" id="BewJQvRjFce1bUqhIdfi">
    <mxGraphModel dx="1296" dy="791" grid="1" gridSize="10" guides="1" tooltips="1" connect="1" arrows="1" fold="1" page="1" pageScale="1" pageWidth="827" pageHeight="1169" math="0" shadow="0">
      <root>
        <mxCell id="0" />
        <mxCell id="1" parent="0" />
        <mxCell id="gVASQ_RAONjGGa6PqWNf-1" value="" style="rounded=1;whiteSpace=wrap;html=1;strokeColor=#B3B3B3;arcSize=20;absoluteArcSize=1;" vertex="1" parent="1">
          <mxGeometry x="60" y="90" width="200" height="234" as="geometry" />
        </mxCell>
        <mxCell id="gVASQ_RAONjGGa6PqWNf-2" value="AccountShare" style="shape=partialRectangle;whiteSpace=wrap;html=1;top=0;left=0;fillColor=none;right=0;fontStyle=1;align=left;strokeColor=#B3B3B3;spacingLeft=15;part=1;resizeWidth=1;" vertex="1" parent="gVASQ_RAONjGGa6PqWNf-1">
          <mxGeometry width="200" height="30" relative="1" as="geometry">
            <mxPoint y="20" as="offset" />
          </mxGeometry>
        </mxCell>
        <mxCell id="gVASQ_RAONjGGa6PqWNf-3" value="External_ID__c" style="text;html=1;strokeColor=none;fillColor=none;align=left;verticalAlign=middle;whiteSpace=wrap;rounded=0;spacingLeft=15;part=1;resizeWidth=1;" vertex="1" parent="gVASQ_RAONjGGa6PqWNf-1">
          <mxGeometry width="200" height="24" relative="1" as="geometry">
            <mxPoint y="54" as="offset" />
          </mxGeometry>
        </mxCell>
        <mxCell id="gVASQ_RAONjGGa6PqWNf-4" value="asdfasdfasdf" style="text;html=1;strokeColor=none;fillColor=none;align=left;verticalAlign=middle;whiteSpace=wrap;rounded=0;spacingLeft=15;part=1;resizeWidth=1;" vertex="1" parent="gVASQ_RAONjGGa6PqWNf-1">
          <mxGeometry width="200" height="24" relative="1" as="geometry">
            <mxPoint y="78" as="offset" />
          </mxGeometry>
        </mxCell>
        <mxCell id="gVASQ_RAONjGGa6PqWNf-33" value="Attribute Three 03" style="text;html=1;strokeColor=none;fillColor=none;align=left;verticalAlign=middle;whiteSpace=wrap;rounded=0;spacingLeft=15;part=1;resizeWidth=1;" vertex="1" parent="gVASQ_RAONjGGa6PqWNf-1">
          <mxGeometry y="150" width="200" height="24" as="geometry" />
        </mxCell>
        <mxCell id="gVASQ_RAONjGGa6PqWNf-32" value="Attribute Three 03" style="text;html=1;strokeColor=none;fillColor=none;align=left;verticalAlign=middle;whiteSpace=wrap;rounded=0;spacingLeft=15;part=1;resizeWidth=1;" vertex="1" parent="gVASQ_RAONjGGa6PqWNf-1">
          <mxGeometry y="121" width="200" height="24" as="geometry" />
        </mxCell>
        <mxCell id="gVASQ_RAONjGGa6PqWNf-64" value="asdfasdfasdf" style="text;html=1;strokeColor=none;fillColor=none;align=left;verticalAlign=middle;whiteSpace=wrap;rounded=0;spacingLeft=15;part=1;resizeWidth=1;" vertex="1" parent="gVASQ_RAONjGGa6PqWNf-1">
          <mxGeometry y="170" width="200" height="24" as="geometry" />
        </mxCell>
        <mxCell id="gVASQ_RAONjGGa6PqWNf-91" value="asdfasdfasdf" style="text;html=1;strokeColor=none;fillColor=none;align=left;verticalAlign=middle;whiteSpace=wrap;rounded=0;spacingLeft=15;part=1;resizeWidth=1;" vertex="1" parent="gVASQ_RAONjGGa6PqWNf-1">
          <mxGeometry y="196" width="200" height="24" as="geometry" />
        </mxCell>
        <mxCell id="gVASQ_RAONjGGa6PqWNf-92" value="asdfasdfasdf" style="text;html=1;strokeColor=none;fillColor=none;align=left;verticalAlign=middle;whiteSpace=wrap;rounded=0;spacingLeft=15;part=1;resizeWidth=1;" vertex="1" parent="gVASQ_RAONjGGa6PqWNf-1">
          <mxGeometry y="210" width="200" height="24" as="geometry" />
        </mxCell>
        <mxCell id="gVASQ_RAONjGGa6PqWNf-66" value="List" style="swimlane;fontStyle=0;childLayout=stackLayout;horizontal=1;startSize=30;horizontalStack=0;resizeParent=1;resizeParentMax=0;resizeLast=0;collapsible=1;marginBottom=0;whiteSpace=wrap;html=1;" vertex="1" parent="1">
          <mxGeometry x="450" y="150" width="140" height="110" as="geometry" />
        </mxCell>
        <mxCell id="gVASQ_RAONjGGa6PqWNf-67" value="Item 1" style="text;strokeColor=none;fillColor=none;align=left;verticalAlign=middle;spacingLeft=4;spacingRight=4;overflow=hidden;points=[[0,0.5],[1,0.5]];portConstraint=eastwest;rotatable=0;whiteSpace=wrap;html=1;" vertex="1" parent="gVASQ_RAONjGGa6PqWNf-66">
          <mxGeometry y="30" width="140" height="30" as="geometry" />
        </mxCell>
        <mxCell id="gVASQ_RAONjGGa6PqWNf-68" value="Item 2" style="text;strokeColor=none;fillColor=none;align=left;verticalAlign=middle;spacingLeft=4;spacingRight=4;overflow=hidden;points=[[0,0.5],[1,0.5]];portConstraint=eastwest;rotatable=0;whiteSpace=wrap;html=1;imageAspect=0;" vertex="1" parent="gVASQ_RAONjGGa6PqWNf-66">
          <mxGeometry y="60" width="140" height="30" as="geometry" />
        </mxCell>
        <mxCell id="gVASQ_RAONjGGa6PqWNf-69" value="Item 3" style="text;strokeColor=none;fillColor=none;align=left;verticalAlign=middle;spacingLeft=4;spacingRight=4;overflow=hidden;points=[[0,0.5],[1,0.5]];portConstraint=eastwest;rotatable=0;whiteSpace=wrap;html=1;" vertex="1" parent="gVASQ_RAONjGGa6PqWNf-66">
          <mxGeometry y="90" width="140" height="20" as="geometry" />
        </mxCell>
        <mxCell id="gVASQ_RAONjGGa6PqWNf-70" value="Item 3" style="text;strokeColor=none;fillColor=none;align=left;verticalAlign=middle;spacingLeft=4;spacingRight=4;overflow=hidden;points=[[0,0.5],[1,0.5]];portConstraint=eastwest;rotatable=0;whiteSpace=wrap;html=1;" vertex="1" parent="1">
          <mxGeometry x="600" y="150" width="140" height="20" as="geometry" />
        </mxCell>
        <mxCell id="gVASQ_RAONjGGa6PqWNf-71" value="" style="rounded=1;whiteSpace=wrap;html=1;strokeColor=#B3B3B3;arcSize=20;absoluteArcSize=1;" vertex="1" parent="1">
          <mxGeometry x="300" y="170" width="200" height="220" as="geometry" />
        </mxCell>
        <mxCell id="gVASQ_RAONjGGa6PqWNf-72" value="Card Title" style="shape=partialRectangle;whiteSpace=wrap;html=1;top=0;left=0;fillColor=none;right=0;fontStyle=1;align=left;strokeColor=#B3B3B3;spacingLeft=15;part=1;resizeWidth=1;" vertex="1" parent="gVASQ_RAONjGGa6PqWNf-71">
          <mxGeometry width="200" height="30" relative="1" as="geometry">
            <mxPoint y="20" as="offset" />
          </mxGeometry>
        </mxCell>
        <mxCell id="gVASQ_RAONjGGa6PqWNf-73" value="Attribute One" style="text;html=1;strokeColor=none;fillColor=none;align=left;verticalAlign=middle;whiteSpace=wrap;rounded=0;spacingLeft=15;part=1;resizeWidth=1;" vertex="1" parent="gVASQ_RAONjGGa6PqWNf-71">
          <mxGeometry width="200" height="24" relative="1" as="geometry">
            <mxPoint y="54" as="offset" />
          </mxGeometry>
        </mxCell>
        <mxCell id="gVASQ_RAONjGGa6PqWNf-74" value="Attribute 02" style="text;html=1;strokeColor=none;fillColor=none;align=left;verticalAlign=middle;whiteSpace=wrap;rounded=0;spacingLeft=15;part=1;resizeWidth=1;" vertex="1" parent="gVASQ_RAONjGGa6PqWNf-71">
          <mxGeometry width="200" height="24" relative="1" as="geometry">
            <mxPoint y="78" as="offset" />
          </mxGeometry>
        </mxCell>
        <mxCell id="gVASQ_RAONjGGa6PqWNf-75" value="Attribute Three 03" style="text;html=1;strokeColor=none;fillColor=none;align=left;verticalAlign=middle;whiteSpace=wrap;rounded=0;spacingLeft=15;part=1;resizeWidth=1;" vertex="1" parent="gVASQ_RAONjGGa6PqWNf-71">
          <mxGeometry width="200" height="24" relative="1" as="geometry">
            <mxPoint y="102" as="offset" />
          </mxGeometry>
        </mxCell>
        <mxCell id="gVASQ_RAONjGGa6PqWNf-76" value="Footer Title" style="text;html=1;strokeColor=none;fillColor=#e5e5e5;align=center;verticalAlign=middle;whiteSpace=wrap;rounded=0;fontSize=11;spacingLeft=5;resizeWidth=1;part=1;" vertex="1" parent="gVASQ_RAONjGGa6PqWNf-71">
          <mxGeometry width="200" height="24" relative="1" as="geometry">
            <mxPoint y="126" as="offset" />
          </mxGeometry>
        </mxCell>
        <mxCell id="gVASQ_RAONjGGa6PqWNf-77" value="" style="ellipse;whiteSpace=wrap;html=1;aspect=fixed;strokeColor=none;fillColor=#e5e5e5;part=1;" vertex="1" parent="gVASQ_RAONjGGa6PqWNf-71">
          <mxGeometry x="0.5" y="1" width="36" height="36" relative="1" as="geometry">
            <mxPoint x="-86" y="-55" as="offset" />
          </mxGeometry>
        </mxCell>
        <mxCell id="gVASQ_RAONjGGa6PqWNf-78" value="" style="html=1;strokeColor=none;fillColor=#fd7298;part=1;" vertex="1" parent="gVASQ_RAONjGGa6PqWNf-77">
          <mxGeometry x="0.5" y="0.5" width="16" height="16" relative="1" as="geometry">
            <mxPoint x="-8" y="-8" as="offset" />
          </mxGeometry>
        </mxCell>
        <mxCell id="gVASQ_RAONjGGa6PqWNf-79" value="" style="ellipse;whiteSpace=wrap;html=1;aspect=fixed;strokeColor=none;fillColor=#e5e5e5;part=1;" vertex="1" parent="gVASQ_RAONjGGa6PqWNf-71">
          <mxGeometry x="0.5" y="1" width="36" height="36" relative="1" as="geometry">
            <mxPoint x="-41" y="-55" as="offset" />
          </mxGeometry>
        </mxCell>
        <mxCell id="gVASQ_RAONjGGa6PqWNf-80" value="" style="html=1;strokeColor=none;fillColor=#fd7298;part=1;" vertex="1" parent="gVASQ_RAONjGGa6PqWNf-79">
          <mxGeometry x="0.5" y="0.5" width="16" height="16" relative="1" as="geometry">
            <mxPoint x="-8" y="-8" as="offset" />
          </mxGeometry>
        </mxCell>
        <mxCell id="gVASQ_RAONjGGa6PqWNf-81" value="" style="ellipse;whiteSpace=wrap;html=1;aspect=fixed;strokeColor=none;fillColor=#e5e5e5;part=1;" vertex="1" parent="gVASQ_RAONjGGa6PqWNf-71">
          <mxGeometry x="0.5" y="1" width="36" height="36" relative="1" as="geometry">
            <mxPoint x="5" y="-55" as="offset" />
          </mxGeometry>
        </mxCell>
        <mxCell id="gVASQ_RAONjGGa6PqWNf-82" value="" style="html=1;strokeColor=none;fillColor=#fd7298;part=1;" vertex="1" parent="gVASQ_RAONjGGa6PqWNf-81">
          <mxGeometry x="0.5" y="0.5" width="16" height="16" relative="1" as="geometry">
            <mxPoint x="-8" y="-8" as="offset" />
          </mxGeometry>
        </mxCell>
        <mxCell id="gVASQ_RAONjGGa6PqWNf-83" value="" style="ellipse;whiteSpace=wrap;html=1;aspect=fixed;strokeColor=none;fillColor=#e5e5e5;part=1;" vertex="1" parent="gVASQ_RAONjGGa6PqWNf-71">
          <mxGeometry x="0.5" y="1" width="36" height="36" relative="1" as="geometry">
            <mxPoint x="50" y="-55" as="offset" />
          </mxGeometry>
        </mxCell>
        <mxCell id="gVASQ_RAONjGGa6PqWNf-84" value="" style="html=1;strokeColor=none;fillColor=#fd7298;part=1;" vertex="1" parent="gVASQ_RAONjGGa6PqWNf-83">
          <mxGeometry x="0.5" y="0.5" width="16" height="16" relative="1" as="geometry">
            <mxPoint x="-8" y="-8" as="offset" />
          </mxGeometry>
        </mxCell>
        <mxCell id="VvG2V798FtIipbFM-qvP-15" value="" style="rounded=1;whiteSpace=wrap;html=1;strokeColor=#B3B3B3;arcSize=20;absoluteArcSize=1;imageAspect=0;editable=1;movable=1;resizable=1;rotatable=1;deletable=1;locked=0;connectable=1;" vertex="1" parent="1">
          <mxGeometry x="40" y="440" width="200" height="280" as="geometry" />
        </mxCell>
        <mxCell id="VvG2V798FtIipbFM-qvP-16" value="Card Title" style="shape=partialRectangle;whiteSpace=wrap;html=1;top=0;left=0;fillColor=none;right=0;fontStyle=1;align=left;strokeColor=#B3B3B3;spacingLeft=15;part=1;resizeWidth=1;" vertex="1" parent="VvG2V798FtIipbFM-qvP-15">
          <mxGeometry width="200" height="30" relative="1" as="geometry">
            <mxPoint y="20" as="offset" />
          </mxGeometry>
        </mxCell>
        <mxCell id="VvG2V798FtIipbFM-qvP-17" value="Attribute One" style="text;html=1;strokeColor=none;fillColor=none;align=left;verticalAlign=middle;whiteSpace=wrap;rounded=0;spacingLeft=15;part=1;resizeWidth=1;" vertex="1" parent="VvG2V798FtIipbFM-qvP-15">
          <mxGeometry width="200" height="24" relative="1" as="geometry">
            <mxPoint y="54" as="offset" />
          </mxGeometry>
        </mxCell>
        <mxCell id="VvG2V798FtIipbFM-qvP-18" value="Attribute 02" style="text;html=1;strokeColor=none;fillColor=none;align=left;verticalAlign=middle;whiteSpace=wrap;rounded=0;spacingLeft=15;part=1;resizeWidth=1;" vertex="1" parent="VvG2V798FtIipbFM-qvP-15">
          <mxGeometry width="200" height="24" relative="1" as="geometry">
            <mxPoint y="78" as="offset" />
          </mxGeometry>
        </mxCell>
        <mxCell id="VvG2V798FtIipbFM-qvP-19" value="Attribute Three 03" style="text;html=1;strokeColor=none;fillColor=none;align=left;verticalAlign=middle;whiteSpace=wrap;rounded=0;spacingLeft=15;part=1;resizeWidth=1;allowArrows=1;movable=0;" vertex="1" parent="VvG2V798FtIipbFM-qvP-15">
          <mxGeometry width="200" height="24" relative="1" as="geometry">
            <mxPoint y="102" as="offset" />
          </mxGeometry>
        </mxCell>
        <mxCell id="VvG2V798FtIipbFM-qvP-21" value="" style="ellipse;whiteSpace=wrap;html=1;aspect=fixed;strokeColor=none;fillColor=#e5e5e5;part=1;" vertex="1" parent="VvG2V798FtIipbFM-qvP-15">
          <mxGeometry x="0.5" y="1" width="36" height="36" relative="1" as="geometry">
            <mxPoint x="-86" y="-55" as="offset" />
          </mxGeometry>
        </mxCell>
        <mxCell id="VvG2V798FtIipbFM-qvP-22" value="" style="html=1;strokeColor=none;fillColor=#fd7298;part=1;" vertex="1" parent="VvG2V798FtIipbFM-qvP-21">
          <mxGeometry x="0.5" y="0.5" width="16" height="16" relative="1" as="geometry">
            <mxPoint x="-8" y="-8" as="offset" />
          </mxGeometry>
        </mxCell>
        <mxCell id="VvG2V798FtIipbFM-qvP-23" value="" style="ellipse;whiteSpace=wrap;html=1;aspect=fixed;strokeColor=none;fillColor=#e5e5e5;part=1;" vertex="1" parent="VvG2V798FtIipbFM-qvP-15">
          <mxGeometry x="0.5" y="1" width="36" height="36" relative="1" as="geometry">
            <mxPoint x="-41" y="-55" as="offset" />
          </mxGeometry>
        </mxCell>
        <mxCell id="VvG2V798FtIipbFM-qvP-24" value="" style="html=1;strokeColor=none;fillColor=#fd7298;part=1;" vertex="1" parent="VvG2V798FtIipbFM-qvP-23">
          <mxGeometry x="0.5" y="0.5" width="16" height="16" relative="1" as="geometry">
            <mxPoint x="-8" y="-8" as="offset" />
          </mxGeometry>
        </mxCell>
        <mxCell id="VvG2V798FtIipbFM-qvP-25" value="" style="ellipse;whiteSpace=wrap;html=1;aspect=fixed;strokeColor=none;fillColor=#e5e5e5;part=1;" vertex="1" parent="VvG2V798FtIipbFM-qvP-15">
          <mxGeometry x="0.5" y="1" width="36" height="36" relative="1" as="geometry">
            <mxPoint x="5" y="-55" as="offset" />
          </mxGeometry>
        </mxCell>
        <mxCell id="VvG2V798FtIipbFM-qvP-26" value="" style="html=1;strokeColor=none;fillColor=#fd7298;part=1;" vertex="1" parent="VvG2V798FtIipbFM-qvP-25">
          <mxGeometry x="0.5" y="0.5" width="16" height="16" relative="1" as="geometry">
            <mxPoint x="-8" y="-8" as="offset" />
          </mxGeometry>
        </mxCell>
        <mxCell id="VvG2V798FtIipbFM-qvP-27" value="" style="ellipse;whiteSpace=wrap;html=1;aspect=fixed;strokeColor=none;fillColor=#e5e5e5;part=1;" vertex="1" parent="VvG2V798FtIipbFM-qvP-15">
          <mxGeometry x="0.5" y="1" width="36" height="36" relative="1" as="geometry">
            <mxPoint x="50" y="-55" as="offset" />
          </mxGeometry>
        </mxCell>
        <mxCell id="VvG2V798FtIipbFM-qvP-28" value="" style="html=1;strokeColor=none;fillColor=#fd7298;part=1;" vertex="1" parent="VvG2V798FtIipbFM-qvP-27">
          <mxGeometry x="0.5" y="0.5" width="16" height="16" relative="1" as="geometry">
            <mxPoint x="-8" y="-8" as="offset" />
          </mxGeometry>
        </mxCell>
        <mxCell id="0iTieApWgedwbOpoNJme-55" value="Attribute Three 03" style="text;html=1;strokeColor=none;fillColor=none;align=left;verticalAlign=middle;whiteSpace=wrap;rounded=0;spacingLeft=15;part=1;resizeWidth=1;points=[[0,0,0,0,0],[0,0.25,0,0,0],[0,0.5,0,0,0],[0,0.75,0,0,0],[0,1,0,0,0],[0.25,0,0,0,0],[0.25,1,0,0,0],[0.5,0,0,0,0],[0.5,1,0,0,0],[0.75,0,0,0,0],[0.75,1,0,0,0],[1,0,0,0,0],[1,0.25,0,0,0],[1,0.5,0,0,0],[1,0.75,0,0,0],[1,1,0,0,0]];shadow=0;glass=0;movableLabel=1;" vertex="1" parent="VvG2V798FtIipbFM-qvP-15">
          <mxGeometry y="128" width="200" height="24" as="geometry" />
        </mxCell>
        <mxCell id="VvG2V798FtIipbFM-qvP-1" value="" style="rounded=1;whiteSpace=wrap;html=1;strokeColor=#B3B3B3;arcSize=20;absoluteArcSize=1;" vertex="1" parent="1">
          <mxGeometry x="530" y="390" width="200" height="220" as="geometry" />
        </mxCell>
        <mxCell id="VvG2V798FtIipbFM-qvP-2" value="Card Title" style="shape=partialRectangle;whiteSpace=wrap;html=1;top=0;left=0;fillColor=none;right=0;fontStyle=1;align=left;strokeColor=#B3B3B3;spacingLeft=15;part=1;resizeWidth=1;" vertex="1" parent="VvG2V798FtIipbFM-qvP-1">
          <mxGeometry width="200" height="30" relative="1" as="geometry">
            <mxPoint y="20" as="offset" />
          </mxGeometry>
        </mxCell>
        <mxCell id="VvG2V798FtIipbFM-qvP-3" value="Attribute One" style="text;html=1;strokeColor=none;fillColor=none;align=left;verticalAlign=middle;whiteSpace=wrap;rounded=0;spacingLeft=15;part=1;resizeWidth=1;" vertex="1" parent="VvG2V798FtIipbFM-qvP-1">
          <mxGeometry width="200" height="24" relative="1" as="geometry">
            <mxPoint y="54" as="offset" />
          </mxGeometry>
        </mxCell>
        <mxCell id="VvG2V798FtIipbFM-qvP-4" value="Attribute 02" style="text;html=1;strokeColor=none;fillColor=none;align=left;verticalAlign=middle;whiteSpace=wrap;rounded=0;spacingLeft=15;part=1;resizeWidth=1;" vertex="1" parent="VvG2V798FtIipbFM-qvP-1">
          <mxGeometry width="200" height="24" relative="1" as="geometry">
            <mxPoint y="78" as="offset" />
          </mxGeometry>
        </mxCell>
        <mxCell id="VvG2V798FtIipbFM-qvP-5" value="Attribute Three 03" style="text;html=1;strokeColor=none;fillColor=none;align=left;verticalAlign=middle;whiteSpace=wrap;rounded=0;spacingLeft=15;part=1;resizeWidth=1;" vertex="1" parent="VvG2V798FtIipbFM-qvP-1">
          <mxGeometry width="200" height="24" relative="1" as="geometry">
            <mxPoint y="102" as="offset" />
          </mxGeometry>
        </mxCell>
        <mxCell id="VvG2V798FtIipbFM-qvP-6" value="Footer Title" style="text;html=1;strokeColor=none;fillColor=#e5e5e5;align=center;verticalAlign=middle;whiteSpace=wrap;rounded=0;fontSize=11;spacingLeft=5;resizeWidth=1;part=1;" vertex="1" parent="VvG2V798FtIipbFM-qvP-1">
          <mxGeometry width="200" height="24" relative="1" as="geometry">
            <mxPoint y="126" as="offset" />
          </mxGeometry>
        </mxCell>
        <mxCell id="VvG2V798FtIipbFM-qvP-7" value="" style="ellipse;whiteSpace=wrap;html=1;aspect=fixed;strokeColor=none;fillColor=#e5e5e5;part=1;" vertex="1" parent="VvG2V798FtIipbFM-qvP-1">
          <mxGeometry x="0.5" y="1" width="36" height="36" relative="1" as="geometry">
            <mxPoint x="-86" y="-55" as="offset" />
          </mxGeometry>
        </mxCell>
        <mxCell id="VvG2V798FtIipbFM-qvP-8" value="" style="html=1;strokeColor=none;fillColor=#fd7298;part=1;" vertex="1" parent="VvG2V798FtIipbFM-qvP-7">
          <mxGeometry x="0.5" y="0.5" width="16" height="16" relative="1" as="geometry">
            <mxPoint x="-8" y="-8" as="offset" />
          </mxGeometry>
        </mxCell>
        <mxCell id="VvG2V798FtIipbFM-qvP-9" value="" style="ellipse;whiteSpace=wrap;html=1;aspect=fixed;strokeColor=none;fillColor=#e5e5e5;part=1;" vertex="1" parent="VvG2V798FtIipbFM-qvP-1">
          <mxGeometry x="0.5" y="1" width="36" height="36" relative="1" as="geometry">
            <mxPoint x="-41" y="-55" as="offset" />
          </mxGeometry>
        </mxCell>
        <mxCell id="VvG2V798FtIipbFM-qvP-10" value="" style="html=1;strokeColor=none;fillColor=#fd7298;part=1;" vertex="1" parent="VvG2V798FtIipbFM-qvP-9">
          <mxGeometry x="0.5" y="0.5" width="16" height="16" relative="1" as="geometry">
            <mxPoint x="-8" y="-8" as="offset" />
          </mxGeometry>
        </mxCell>
        <mxCell id="VvG2V798FtIipbFM-qvP-11" value="" style="ellipse;whiteSpace=wrap;html=1;aspect=fixed;strokeColor=none;fillColor=#e5e5e5;part=1;" vertex="1" parent="VvG2V798FtIipbFM-qvP-1">
          <mxGeometry x="0.5" y="1" width="36" height="36" relative="1" as="geometry">
            <mxPoint x="5" y="-55" as="offset" />
          </mxGeometry>
        </mxCell>
        <mxCell id="VvG2V798FtIipbFM-qvP-12" value="" style="html=1;strokeColor=none;fillColor=#fd7298;part=1;" vertex="1" parent="VvG2V798FtIipbFM-qvP-11">
          <mxGeometry x="0.5" y="0.5" width="16" height="16" relative="1" as="geometry">
            <mxPoint x="-8" y="-8" as="offset" />
          </mxGeometry>
        </mxCell>
        <mxCell id="VvG2V798FtIipbFM-qvP-13" value="" style="ellipse;whiteSpace=wrap;html=1;aspect=fixed;strokeColor=none;fillColor=#e5e5e5;part=1;" vertex="1" parent="VvG2V798FtIipbFM-qvP-1">
          <mxGeometry x="0.5" y="1" width="36" height="36" relative="1" as="geometry">
            <mxPoint x="50" y="-55" as="offset" />
          </mxGeometry>
        </mxCell>
        <mxCell id="VvG2V798FtIipbFM-qvP-14" value="" style="html=1;strokeColor=none;fillColor=#fd7298;part=1;" vertex="1" parent="VvG2V798FtIipbFM-qvP-13">
          <mxGeometry x="0.5" y="0.5" width="16" height="16" relative="1" as="geometry">
            <mxPoint x="-8" y="-8" as="offset" />
          </mxGeometry>
        </mxCell>
        <mxCell id="0iTieApWgedwbOpoNJme-1" value="" style="rounded=1;whiteSpace=wrap;html=1;strokeColor=#B3B3B3;arcSize=20;absoluteArcSize=1;" vertex="1" parent="1">
          <mxGeometry x="540" y="400" width="200" height="220" as="geometry" />
        </mxCell>
        <mxCell id="0iTieApWgedwbOpoNJme-2" value="Card Title" style="shape=partialRectangle;whiteSpace=wrap;html=1;top=0;left=0;fillColor=none;right=0;fontStyle=1;align=left;strokeColor=#B3B3B3;spacingLeft=15;part=1;resizeWidth=1;" vertex="1" parent="0iTieApWgedwbOpoNJme-1">
          <mxGeometry width="200" height="30" relative="1" as="geometry">
            <mxPoint y="20" as="offset" />
          </mxGeometry>
        </mxCell>
        <mxCell id="0iTieApWgedwbOpoNJme-3" value="Attribute One" style="text;html=1;strokeColor=none;fillColor=none;align=left;verticalAlign=middle;whiteSpace=wrap;rounded=0;spacingLeft=15;part=1;resizeWidth=1;" vertex="1" parent="0iTieApWgedwbOpoNJme-1">
          <mxGeometry width="200" height="24" relative="1" as="geometry">
            <mxPoint y="54" as="offset" />
          </mxGeometry>
        </mxCell>
        <mxCell id="0iTieApWgedwbOpoNJme-4" value="Attribute 02" style="text;html=1;strokeColor=none;fillColor=none;align=left;verticalAlign=middle;whiteSpace=wrap;rounded=0;spacingLeft=15;part=1;resizeWidth=1;" vertex="1" parent="0iTieApWgedwbOpoNJme-1">
          <mxGeometry width="200" height="24" relative="1" as="geometry">
            <mxPoint y="78" as="offset" />
          </mxGeometry>
        </mxCell>
        <mxCell id="0iTieApWgedwbOpoNJme-5" value="Attribute Three 03" style="text;html=1;strokeColor=none;fillColor=none;align=left;verticalAlign=middle;whiteSpace=wrap;rounded=0;spacingLeft=15;part=1;resizeWidth=1;" vertex="1" parent="0iTieApWgedwbOpoNJme-1">
          <mxGeometry width="200" height="24" relative="1" as="geometry">
            <mxPoint y="102" as="offset" />
          </mxGeometry>
        </mxCell>
        <mxCell id="0iTieApWgedwbOpoNJme-6" value="Footer Title" style="text;html=1;strokeColor=none;fillColor=#e5e5e5;align=center;verticalAlign=middle;whiteSpace=wrap;rounded=0;fontSize=11;spacingLeft=5;resizeWidth=1;part=1;" vertex="1" parent="0iTieApWgedwbOpoNJme-1">
          <mxGeometry width="200" height="24" relative="1" as="geometry">
            <mxPoint y="126" as="offset" />
          </mxGeometry>
        </mxCell>
        <mxCell id="0iTieApWgedwbOpoNJme-7" value="" style="ellipse;whiteSpace=wrap;html=1;aspect=fixed;strokeColor=none;fillColor=#e5e5e5;part=1;" vertex="1" parent="0iTieApWgedwbOpoNJme-1">
          <mxGeometry x="0.5" y="1" width="36" height="36" relative="1" as="geometry">
            <mxPoint x="-86" y="-55" as="offset" />
          </mxGeometry>
        </mxCell>
        <mxCell id="0iTieApWgedwbOpoNJme-8" value="" style="html=1;strokeColor=none;fillColor=#fd7298;part=1;" vertex="1" parent="0iTieApWgedwbOpoNJme-7">
          <mxGeometry x="0.5" y="0.5" width="16" height="16" relative="1" as="geometry">
            <mxPoint x="-8" y="-8" as="offset" />
          </mxGeometry>
        </mxCell>
        <mxCell id="0iTieApWgedwbOpoNJme-9" value="" style="ellipse;whiteSpace=wrap;html=1;aspect=fixed;strokeColor=none;fillColor=#e5e5e5;part=1;" vertex="1" parent="0iTieApWgedwbOpoNJme-1">
          <mxGeometry x="0.5" y="1" width="36" height="36" relative="1" as="geometry">
            <mxPoint x="-41" y="-55" as="offset" />
          </mxGeometry>
        </mxCell>
        <mxCell id="0iTieApWgedwbOpoNJme-10" value="" style="html=1;strokeColor=none;fillColor=#fd7298;part=1;" vertex="1" parent="0iTieApWgedwbOpoNJme-9">
          <mxGeometry x="0.5" y="0.5" width="16" height="16" relative="1" as="geometry">
            <mxPoint x="-8" y="-8" as="offset" />
          </mxGeometry>
        </mxCell>
        <mxCell id="0iTieApWgedwbOpoNJme-11" value="" style="ellipse;whiteSpace=wrap;html=1;aspect=fixed;strokeColor=none;fillColor=#e5e5e5;part=1;" vertex="1" parent="0iTieApWgedwbOpoNJme-1">
          <mxGeometry x="0.5" y="1" width="36" height="36" relative="1" as="geometry">
            <mxPoint x="5" y="-55" as="offset" />
          </mxGeometry>
        </mxCell>
        <mxCell id="0iTieApWgedwbOpoNJme-12" value="" style="html=1;strokeColor=none;fillColor=#fd7298;part=1;" vertex="1" parent="0iTieApWgedwbOpoNJme-11">
          <mxGeometry x="0.5" y="0.5" width="16" height="16" relative="1" as="geometry">
            <mxPoint x="-8" y="-8" as="offset" />
          </mxGeometry>
        </mxCell>
        <mxCell id="0iTieApWgedwbOpoNJme-13" value="" style="ellipse;whiteSpace=wrap;html=1;aspect=fixed;strokeColor=none;fillColor=#e5e5e5;part=1;" vertex="1" parent="0iTieApWgedwbOpoNJme-1">
          <mxGeometry x="0.5" y="1" width="36" height="36" relative="1" as="geometry">
            <mxPoint x="50" y="-55" as="offset" />
          </mxGeometry>
        </mxCell>
        <mxCell id="0iTieApWgedwbOpoNJme-14" value="" style="html=1;strokeColor=none;fillColor=#fd7298;part=1;" vertex="1" parent="0iTieApWgedwbOpoNJme-13">
          <mxGeometry x="0.5" y="0.5" width="16" height="16" relative="1" as="geometry">
            <mxPoint x="-8" y="-8" as="offset" />
          </mxGeometry>
        </mxCell>
        <mxCell id="0iTieApWgedwbOpoNJme-15" value="&lt;br&gt;&lt;br&gt;&lt;br&gt;&lt;br&gt;&lt;br&gt;&lt;br&gt;&lt;br&gt;&lt;br&gt;&lt;br&gt;" style="rounded=1;whiteSpace=wrap;html=1;strokeColor=#B3B3B3;arcSize=20;absoluteArcSize=1;" vertex="1" parent="1">
          <mxGeometry x="550" y="410" width="200" height="220" as="geometry" />
        </mxCell>
        <mxCell id="0iTieApWgedwbOpoNJme-16" value="Card Title" style="shape=partialRectangle;whiteSpace=wrap;html=1;top=0;left=0;fillColor=none;right=0;fontStyle=1;align=left;strokeColor=#B3B3B3;spacingLeft=15;part=1;resizeWidth=1;" vertex="1" parent="0iTieApWgedwbOpoNJme-15">
          <mxGeometry width="200" height="30" relative="1" as="geometry">
            <mxPoint y="20" as="offset" />
          </mxGeometry>
        </mxCell>
        <mxCell id="0iTieApWgedwbOpoNJme-17" value="Attribute One" style="text;html=1;strokeColor=none;fillColor=none;align=left;verticalAlign=middle;whiteSpace=wrap;rounded=0;spacingLeft=15;part=1;resizeWidth=1;" vertex="1" parent="0iTieApWgedwbOpoNJme-15">
          <mxGeometry width="200" height="24" relative="1" as="geometry">
            <mxPoint y="54" as="offset" />
          </mxGeometry>
        </mxCell>
        <mxCell id="0iTieApWgedwbOpoNJme-18" value="Attribute 02" style="text;html=1;strokeColor=none;fillColor=none;align=left;verticalAlign=middle;whiteSpace=wrap;rounded=0;spacingLeft=15;part=1;resizeWidth=1;" vertex="1" parent="0iTieApWgedwbOpoNJme-15">
          <mxGeometry width="200" height="24" relative="1" as="geometry">
            <mxPoint y="78" as="offset" />
          </mxGeometry>
        </mxCell>
        <mxCell id="0iTieApWgedwbOpoNJme-19" value="Attribute Three 03" style="text;html=1;strokeColor=none;fillColor=none;align=left;verticalAlign=middle;whiteSpace=wrap;rounded=0;spacingLeft=15;part=1;resizeWidth=1;" vertex="1" parent="0iTieApWgedwbOpoNJme-15">
          <mxGeometry width="200" height="24" relative="1" as="geometry">
            <mxPoint y="102" as="offset" />
          </mxGeometry>
        </mxCell>
        <mxCell id="0iTieApWgedwbOpoNJme-20" value="Footer Title" style="text;html=1;strokeColor=none;fillColor=#e5e5e5;align=center;verticalAlign=middle;whiteSpace=wrap;rounded=0;fontSize=11;spacingLeft=5;resizeWidth=1;part=1;" vertex="1" parent="0iTieApWgedwbOpoNJme-15">
          <mxGeometry width="200" height="24" relative="1" as="geometry">
            <mxPoint y="126" as="offset" />
          </mxGeometry>
        </mxCell>
        <mxCell id="0iTieApWgedwbOpoNJme-21" value="" style="ellipse;whiteSpace=wrap;html=1;aspect=fixed;strokeColor=none;fillColor=#e5e5e5;part=1;" vertex="1" parent="0iTieApWgedwbOpoNJme-15">
          <mxGeometry x="0.5" y="1" width="36" height="36" relative="1" as="geometry">
            <mxPoint x="-86" y="-55" as="offset" />
          </mxGeometry>
        </mxCell>
        <mxCell id="0iTieApWgedwbOpoNJme-22" value="" style="html=1;strokeColor=none;fillColor=#fd7298;part=1;" vertex="1" parent="0iTieApWgedwbOpoNJme-21">
          <mxGeometry x="0.5" y="0.5" width="16" height="16" relative="1" as="geometry">
            <mxPoint x="-8" y="-8" as="offset" />
          </mxGeometry>
        </mxCell>
        <mxCell id="0iTieApWgedwbOpoNJme-23" value="" style="ellipse;whiteSpace=wrap;html=1;aspect=fixed;strokeColor=none;fillColor=#e5e5e5;part=1;" vertex="1" parent="0iTieApWgedwbOpoNJme-15">
          <mxGeometry x="0.5" y="1" width="36" height="36" relative="1" as="geometry">
            <mxPoint x="-41" y="-55" as="offset" />
          </mxGeometry>
        </mxCell>
        <mxCell id="0iTieApWgedwbOpoNJme-24" value="" style="html=1;strokeColor=none;fillColor=#fd7298;part=1;" vertex="1" parent="0iTieApWgedwbOpoNJme-23">
          <mxGeometry x="0.5" y="0.5" width="16" height="16" relative="1" as="geometry">
            <mxPoint x="-8" y="-8" as="offset" />
          </mxGeometry>
        </mxCell>
        <mxCell id="0iTieApWgedwbOpoNJme-25" value="" style="ellipse;whiteSpace=wrap;html=1;aspect=fixed;strokeColor=none;fillColor=#e5e5e5;part=1;" vertex="1" parent="0iTieApWgedwbOpoNJme-15">
          <mxGeometry x="0.5" y="1" width="36" height="36" relative="1" as="geometry">
            <mxPoint x="5" y="-55" as="offset" />
          </mxGeometry>
        </mxCell>
        <mxCell id="0iTieApWgedwbOpoNJme-26" value="" style="html=1;strokeColor=none;fillColor=#fd7298;part=1;" vertex="1" parent="0iTieApWgedwbOpoNJme-25">
          <mxGeometry x="0.5" y="0.5" width="16" height="16" relative="1" as="geometry">
            <mxPoint x="-8" y="-8" as="offset" />
          </mxGeometry>
        </mxCell>
        <mxCell id="0iTieApWgedwbOpoNJme-27" value="" style="ellipse;whiteSpace=wrap;html=1;aspect=fixed;strokeColor=none;fillColor=#e5e5e5;part=1;" vertex="1" parent="0iTieApWgedwbOpoNJme-15">
          <mxGeometry x="0.5" y="1" width="36" height="36" relative="1" as="geometry">
            <mxPoint x="50" y="-55" as="offset" />
          </mxGeometry>
        </mxCell>
        <mxCell id="0iTieApWgedwbOpoNJme-28" value="" style="html=1;strokeColor=none;fillColor=#fd7298;part=1;" vertex="1" parent="0iTieApWgedwbOpoNJme-27">
          <mxGeometry x="0.5" y="0.5" width="16" height="16" relative="1" as="geometry">
            <mxPoint x="-8" y="-8" as="offset" />
          </mxGeometry>
        </mxCell>
        <mxCell id="gVASQ_RAONjGGa6PqWNf-85" value="Classname" style="swimlane;fontStyle=0;childLayout=stackLayout;horizontal=1;startSize=26;fillColor=none;horizontalStack=0;resizeParent=1;resizeParentMax=0;resizeLast=0;collapsible=1;marginBottom=0;whiteSpace=wrap;html=1;" vertex="1" parent="1">
          <mxGeometry x="630" y="210" width="140" height="156" as="geometry" />
        </mxCell>
        <mxCell id="gVASQ_RAONjGGa6PqWNf-86" value="+ field: type" style="text;strokeColor=none;fillColor=none;align=left;verticalAlign=top;spacingLeft=4;spacingRight=4;overflow=hidden;rotatable=0;points=[[0,0.5],[1,0.5]];portConstraint=eastwest;whiteSpace=wrap;html=1;" vertex="1" parent="gVASQ_RAONjGGa6PqWNf-85">
          <mxGeometry y="26" width="140" height="26" as="geometry" />
        </mxCell>
        <mxCell id="gVASQ_RAONjGGa6PqWNf-87" value="+ field: type" style="text;strokeColor=none;fillColor=none;align=left;verticalAlign=top;spacingLeft=4;spacingRight=4;overflow=hidden;rotatable=0;points=[[0,0.5],[1,0.5]];portConstraint=eastwest;whiteSpace=wrap;html=1;" vertex="1" parent="gVASQ_RAONjGGa6PqWNf-85">
          <mxGeometry y="52" width="140" height="26" as="geometry" />
        </mxCell>
        <mxCell id="gVASQ_RAONjGGa6PqWNf-88" value="+ field: type" style="text;strokeColor=none;fillColor=none;align=left;verticalAlign=top;spacingLeft=4;spacingRight=4;overflow=hidden;rotatable=0;points=[[0,0.5],[1,0.5]];portConstraint=eastwest;whiteSpace=wrap;html=1;" vertex="1" parent="gVASQ_RAONjGGa6PqWNf-85">
          <mxGeometry y="78" width="140" height="26" as="geometry" />
        </mxCell>
        <mxCell id="gVASQ_RAONjGGa6PqWNf-89" value="+ field: type" style="text;strokeColor=none;fillColor=none;align=left;verticalAlign=top;spacingLeft=4;spacingRight=4;overflow=hidden;rotatable=0;points=[[0,0.5],[1,0.5]];portConstraint=eastwest;whiteSpace=wrap;html=1;" vertex="1" parent="gVASQ_RAONjGGa6PqWNf-85">
          <mxGeometry y="104" width="140" height="26" as="geometry" />
        </mxCell>
        <mxCell id="gVASQ_RAONjGGa6PqWNf-90" value="+ field: type" style="text;strokeColor=none;fillColor=none;align=left;verticalAlign=top;spacingLeft=4;spacingRight=4;overflow=hidden;rotatable=0;points=[[0,0.5],[1,0.5]];portConstraint=eastwest;whiteSpace=wrap;html=1;" vertex="1" parent="gVASQ_RAONjGGa6PqWNf-85">
          <mxGeometry y="130" width="140" height="26" as="geometry" />
        </mxCell>
        <mxCell id="VvG2V798FtIipbFM-qvP-42" value="Table" style="shape=table;startSize=30;container=1;collapsible=1;childLayout=tableLayout;fixedRows=1;rowLines=0;fontStyle=1;align=center;resizeLast=1;html=1;rounded=0;" vertex="1" parent="1">
          <mxGeometry x="310" y="490" width="180" height="180" as="geometry" />
        </mxCell>
        <mxCell id="VvG2V798FtIipbFM-qvP-43" value="" style="shape=tableRow;horizontal=0;startSize=0;swimlaneHead=0;swimlaneBody=0;fillColor=none;collapsible=0;dropTarget=0;points=[[0,0.5],[1,0.5]];portConstraint=eastwest;top=0;left=0;right=0;bottom=1;" vertex="1" parent="VvG2V798FtIipbFM-qvP-42">
          <mxGeometry y="30" width="180" height="30" as="geometry" />
        </mxCell>
        <mxCell id="VvG2V798FtIipbFM-qvP-44" value="PK" style="shape=partialRectangle;connectable=0;fillColor=none;top=0;left=0;bottom=0;right=0;fontStyle=1;overflow=hidden;whiteSpace=wrap;html=1;" vertex="1" parent="VvG2V798FtIipbFM-qvP-43">
          <mxGeometry width="30" height="30" as="geometry">
            <mxRectangle width="30" height="30" as="alternateBounds" />
          </mxGeometry>
        </mxCell>
        <mxCell id="VvG2V798FtIipbFM-qvP-45" value="UniqueID" style="shape=partialRectangle;connectable=0;fillColor=none;top=0;left=0;bottom=0;right=0;align=left;spacingLeft=6;fontStyle=5;overflow=hidden;whiteSpace=wrap;html=1;" vertex="1" parent="VvG2V798FtIipbFM-qvP-43">
          <mxGeometry x="30" width="150" height="30" as="geometry">
            <mxRectangle width="150" height="30" as="alternateBounds" />
          </mxGeometry>
        </mxCell>
        <mxCell id="VvG2V798FtIipbFM-qvP-46" value="" style="shape=tableRow;horizontal=0;startSize=0;swimlaneHead=0;swimlaneBody=0;fillColor=none;collapsible=0;dropTarget=0;points=[[0,0.5],[1,0.5]];portConstraint=eastwest;top=0;left=0;right=0;bottom=0;" vertex="1" parent="VvG2V798FtIipbFM-qvP-42">
          <mxGeometry y="60" width="180" height="30" as="geometry" />
        </mxCell>
        <mxCell id="VvG2V798FtIipbFM-qvP-47" value="" style="shape=partialRectangle;connectable=0;fillColor=none;top=0;left=0;bottom=0;right=0;editable=1;overflow=hidden;whiteSpace=wrap;html=1;" vertex="1" parent="VvG2V798FtIipbFM-qvP-46">
          <mxGeometry width="30" height="30" as="geometry">
            <mxRectangle width="30" height="30" as="alternateBounds" />
          </mxGeometry>
        </mxCell>
        <mxCell id="VvG2V798FtIipbFM-qvP-48" value="Row 1" style="shape=partialRectangle;connectable=0;fillColor=none;top=0;left=0;bottom=0;right=0;align=left;spacingLeft=6;overflow=hidden;whiteSpace=wrap;html=1;" vertex="1" parent="VvG2V798FtIipbFM-qvP-46">
          <mxGeometry x="30" width="150" height="30" as="geometry">
            <mxRectangle width="150" height="30" as="alternateBounds" />
          </mxGeometry>
        </mxCell>
        <mxCell id="VvG2V798FtIipbFM-qvP-49" value="" style="shape=tableRow;horizontal=0;startSize=0;swimlaneHead=0;swimlaneBody=0;fillColor=none;collapsible=0;dropTarget=0;points=[[0,0.5],[1,0.5]];portConstraint=eastwest;top=0;left=0;right=0;bottom=0;" vertex="1" parent="VvG2V798FtIipbFM-qvP-42">
          <mxGeometry y="90" width="180" height="30" as="geometry" />
        </mxCell>
        <mxCell id="VvG2V798FtIipbFM-qvP-50" value="" style="shape=partialRectangle;connectable=0;fillColor=none;top=0;left=0;bottom=0;right=0;editable=1;overflow=hidden;whiteSpace=wrap;html=1;" vertex="1" parent="VvG2V798FtIipbFM-qvP-49">
          <mxGeometry width="30" height="30" as="geometry">
            <mxRectangle width="30" height="30" as="alternateBounds" />
          </mxGeometry>
        </mxCell>
        <mxCell id="VvG2V798FtIipbFM-qvP-51" value="Row 2" style="shape=partialRectangle;connectable=0;fillColor=none;top=0;left=0;bottom=0;right=0;align=left;spacingLeft=6;overflow=hidden;whiteSpace=wrap;html=1;" vertex="1" parent="VvG2V798FtIipbFM-qvP-49">
          <mxGeometry x="30" width="150" height="30" as="geometry">
            <mxRectangle width="150" height="30" as="alternateBounds" />
          </mxGeometry>
        </mxCell>
        <mxCell id="VvG2V798FtIipbFM-qvP-52" value="" style="shape=tableRow;horizontal=0;startSize=0;swimlaneHead=0;swimlaneBody=0;fillColor=none;collapsible=0;dropTarget=0;points=[[0,0.5],[1,0.5]];portConstraint=eastwest;top=0;left=0;right=0;bottom=0;" vertex="1" parent="VvG2V798FtIipbFM-qvP-42">
          <mxGeometry y="120" width="180" height="30" as="geometry" />
        </mxCell>
        <mxCell id="VvG2V798FtIipbFM-qvP-53" value="" style="shape=partialRectangle;connectable=0;fillColor=none;top=0;left=0;bottom=0;right=0;editable=1;overflow=hidden;whiteSpace=wrap;html=1;" vertex="1" parent="VvG2V798FtIipbFM-qvP-52">
          <mxGeometry width="30" height="30" as="geometry">
            <mxRectangle width="30" height="30" as="alternateBounds" />
          </mxGeometry>
        </mxCell>
        <mxCell id="VvG2V798FtIipbFM-qvP-54" value="Row 3" style="shape=partialRectangle;connectable=0;fillColor=none;top=0;left=0;bottom=0;right=0;align=left;spacingLeft=6;overflow=hidden;whiteSpace=wrap;html=1;" vertex="1" parent="VvG2V798FtIipbFM-qvP-52">
          <mxGeometry x="30" width="150" height="30" as="geometry">
            <mxRectangle width="150" height="30" as="alternateBounds" />
          </mxGeometry>
        </mxCell>
        <mxCell id="VvG2V798FtIipbFM-qvP-55" value="" style="shape=tableRow;horizontal=0;startSize=0;swimlaneHead=0;swimlaneBody=0;fillColor=none;collapsible=0;dropTarget=0;points=[[0,0.5],[1,0.5]];portConstraint=eastwest;top=0;left=0;right=0;bottom=0;" vertex="1" parent="VvG2V798FtIipbFM-qvP-42">
          <mxGeometry y="150" width="180" height="30" as="geometry" />
        </mxCell>
        <mxCell id="VvG2V798FtIipbFM-qvP-56" value="" style="shape=partialRectangle;connectable=0;fillColor=none;top=0;left=0;bottom=0;right=0;editable=1;overflow=hidden;whiteSpace=wrap;html=1;" vertex="1" parent="VvG2V798FtIipbFM-qvP-55">
          <mxGeometry width="30" height="30" as="geometry">
            <mxRectangle width="30" height="30" as="alternateBounds" />
          </mxGeometry>
        </mxCell>
        <mxCell id="VvG2V798FtIipbFM-qvP-57" value="Row 3" style="shape=partialRectangle;connectable=0;fillColor=none;top=0;left=0;bottom=0;right=0;align=left;spacingLeft=6;overflow=hidden;whiteSpace=wrap;html=1;" vertex="1" parent="VvG2V798FtIipbFM-qvP-55">
          <mxGeometry x="30" width="150" height="30" as="geometry">
            <mxRectangle width="150" height="30" as="alternateBounds" />
          </mxGeometry>
        </mxCell>
      </root>
    </mxGraphModel>
  </diagram>
  <diagram id="4RJLtSIN1cOdb1y7pv1r" name="Page-2">
    <mxGraphModel dx="1296" dy="791" grid="0" gridSize="10" guides="1" tooltips="1" connect="1" arrows="1" fold="1" page="1" pageScale="1" pageWidth="827" pageHeight="1169" background="none" math="0" shadow="0">
      <root>
        <mxCell id="0" />
        <mxCell id="1" parent="0" />
        <mxCell id="tqVSBorQT68AYosV2dxL-1" value="AccountShare" style="shape=table;startSize=30;container=1;collapsible=1;childLayout=tableLayout;fixedRows=1;rowLines=0;fontStyle=1;align=center;resizeLast=1;html=1;rounded=1;shadow=0;swimlaneLine=1;columnLines=1;arcSize=15;top=1;fillColor=#FAE5C7;labelBackgroundColor=none;strokeColor=#0F8B8D;fontColor=#143642;" vertex="1" parent="1">
          <mxGeometry x="60" y="141" width="180" height="180" as="geometry" />
        </mxCell>
        <mxCell id="tqVSBorQT68AYosV2dxL-2" value="" style="shape=tableRow;horizontal=0;startSize=0;swimlaneHead=0;swimlaneBody=0;fillColor=none;collapsible=0;dropTarget=0;points=[[0,0.5],[1,0.5]];portConstraint=eastwest;top=0;left=0;right=0;bottom=1;rounded=1;labelBackgroundColor=none;strokeColor=#0F8B8D;fontColor=#143642;" vertex="1" parent="tqVSBorQT68AYosV2dxL-1">
          <mxGeometry y="30" width="180" height="30" as="geometry" />
        </mxCell>
        <mxCell id="tqVSBorQT68AYosV2dxL-3" value="PK" style="shape=partialRectangle;connectable=0;fillColor=none;top=0;left=0;bottom=0;right=0;fontStyle=1;overflow=hidden;whiteSpace=wrap;html=1;rounded=1;labelBackgroundColor=none;strokeColor=#0F8B8D;fontColor=#143642;" vertex="1" parent="tqVSBorQT68AYosV2dxL-2">
          <mxGeometry width="30" height="30" as="geometry">
            <mxRectangle width="30" height="30" as="alternateBounds" />
          </mxGeometry>
        </mxCell>
        <mxCell id="tqVSBorQT68AYosV2dxL-4" value="External_ID__c" style="shape=partialRectangle;connectable=0;fillColor=none;top=0;left=0;bottom=0;right=0;align=left;spacingLeft=6;fontStyle=5;overflow=hidden;whiteSpace=wrap;html=1;rounded=1;labelBackgroundColor=none;strokeColor=#0F8B8D;fontColor=#143642;" vertex="1" parent="tqVSBorQT68AYosV2dxL-2">
          <mxGeometry x="30" width="150" height="30" as="geometry">
            <mxRectangle width="150" height="30" as="alternateBounds" />
          </mxGeometry>
        </mxCell>
        <mxCell id="tqVSBorQT68AYosV2dxL-5" value="" style="shape=tableRow;horizontal=0;startSize=0;swimlaneHead=0;swimlaneBody=0;fillColor=none;collapsible=0;dropTarget=0;points=[[0,0.5],[1,0.5]];portConstraint=eastwest;top=0;left=0;right=0;bottom=0;rounded=1;labelBackgroundColor=none;strokeColor=#0F8B8D;fontColor=#143642;" vertex="1" parent="tqVSBorQT68AYosV2dxL-1">
          <mxGeometry y="60" width="180" height="30" as="geometry" />
        </mxCell>
        <mxCell id="tqVSBorQT68AYosV2dxL-6" value="" style="shape=partialRectangle;connectable=0;fillColor=none;top=0;left=0;bottom=0;right=0;editable=1;overflow=hidden;whiteSpace=wrap;html=1;rounded=1;labelBackgroundColor=none;strokeColor=#0F8B8D;fontColor=#143642;" vertex="1" parent="tqVSBorQT68AYosV2dxL-5">
          <mxGeometry width="30" height="30" as="geometry">
            <mxRectangle width="30" height="30" as="alternateBounds" />
          </mxGeometry>
        </mxCell>
        <mxCell id="tqVSBorQT68AYosV2dxL-7" value="AccountId" style="shape=partialRectangle;connectable=0;fillColor=none;top=0;left=0;bottom=0;right=0;align=left;spacingLeft=6;overflow=hidden;whiteSpace=wrap;html=1;rounded=1;labelBackgroundColor=none;strokeColor=#0F8B8D;fontColor=#143642;" vertex="1" parent="tqVSBorQT68AYosV2dxL-5">
          <mxGeometry x="30" width="150" height="30" as="geometry">
            <mxRectangle width="150" height="30" as="alternateBounds" />
          </mxGeometry>
        </mxCell>
        <mxCell id="tqVSBorQT68AYosV2dxL-8" value="" style="shape=tableRow;horizontal=0;startSize=0;swimlaneHead=0;swimlaneBody=0;fillColor=none;collapsible=0;dropTarget=0;points=[[0,0.5],[1,0.5]];portConstraint=eastwest;top=0;left=0;right=0;bottom=0;rounded=1;labelBackgroundColor=none;strokeColor=#0F8B8D;fontColor=#143642;" vertex="1" parent="tqVSBorQT68AYosV2dxL-1">
          <mxGeometry y="90" width="180" height="30" as="geometry" />
        </mxCell>
        <mxCell id="tqVSBorQT68AYosV2dxL-9" value="" style="shape=partialRectangle;connectable=0;fillColor=none;top=0;left=0;bottom=0;right=0;editable=1;overflow=hidden;whiteSpace=wrap;html=1;rounded=1;labelBackgroundColor=none;strokeColor=#0F8B8D;fontColor=#143642;" vertex="1" parent="tqVSBorQT68AYosV2dxL-8">
          <mxGeometry width="30" height="30" as="geometry">
            <mxRectangle width="30" height="30" as="alternateBounds" />
          </mxGeometry>
        </mxCell>
        <mxCell id="tqVSBorQT68AYosV2dxL-10" value="UserOrGroupId" style="shape=partialRectangle;connectable=0;fillColor=none;top=0;left=0;bottom=0;right=0;align=left;spacingLeft=6;overflow=hidden;whiteSpace=wrap;html=1;rounded=1;labelBackgroundColor=none;strokeColor=#0F8B8D;fontColor=#143642;" vertex="1" parent="tqVSBorQT68AYosV2dxL-8">
          <mxGeometry x="30" width="150" height="30" as="geometry">
            <mxRectangle width="150" height="30" as="alternateBounds" />
          </mxGeometry>
        </mxCell>
        <mxCell id="tqVSBorQT68AYosV2dxL-11" value="" style="shape=tableRow;horizontal=0;startSize=0;swimlaneHead=0;swimlaneBody=0;fillColor=none;collapsible=0;dropTarget=0;points=[[0,0.5],[1,0.5]];portConstraint=eastwest;top=0;left=0;right=0;bottom=0;rounded=1;labelBackgroundColor=none;strokeColor=#0F8B8D;fontColor=#143642;" vertex="1" parent="tqVSBorQT68AYosV2dxL-1">
          <mxGeometry y="120" width="180" height="30" as="geometry" />
        </mxCell>
        <mxCell id="tqVSBorQT68AYosV2dxL-12" value="" style="shape=partialRectangle;connectable=0;fillColor=none;top=0;left=0;bottom=0;right=0;editable=1;overflow=hidden;whiteSpace=wrap;html=1;rounded=1;labelBackgroundColor=none;strokeColor=#0F8B8D;fontColor=#143642;" vertex="1" parent="tqVSBorQT68AYosV2dxL-11">
          <mxGeometry width="30" height="30" as="geometry">
            <mxRectangle width="30" height="30" as="alternateBounds" />
          </mxGeometry>
        </mxCell>
        <mxCell id="tqVSBorQT68AYosV2dxL-13" value="RowCause" style="shape=partialRectangle;connectable=0;fillColor=none;top=0;left=0;bottom=0;right=0;align=left;spacingLeft=6;overflow=hidden;whiteSpace=wrap;html=1;rounded=1;labelBackgroundColor=none;strokeColor=#0F8B8D;fontColor=#143642;" vertex="1" parent="tqVSBorQT68AYosV2dxL-11">
          <mxGeometry x="30" width="150" height="30" as="geometry">
            <mxRectangle width="150" height="30" as="alternateBounds" />
          </mxGeometry>
        </mxCell>
        <mxCell id="tqVSBorQT68AYosV2dxL-14" value="" style="shape=tableRow;horizontal=0;startSize=0;swimlaneHead=0;swimlaneBody=0;fillColor=none;collapsible=0;dropTarget=0;points=[[0,0.5],[1,0.5]];portConstraint=eastwest;top=0;left=0;right=0;bottom=0;rounded=1;labelBackgroundColor=none;strokeColor=#0F8B8D;fontColor=#143642;" vertex="1" parent="tqVSBorQT68AYosV2dxL-1">
          <mxGeometry y="150" width="180" height="30" as="geometry" />
        </mxCell>
        <mxCell id="tqVSBorQT68AYosV2dxL-15" value="" style="shape=partialRectangle;connectable=0;fillColor=none;top=0;left=0;bottom=0;right=0;editable=1;overflow=hidden;whiteSpace=wrap;html=1;rounded=1;labelBackgroundColor=none;strokeColor=#0F8B8D;fontColor=#143642;" vertex="1" parent="tqVSBorQT68AYosV2dxL-14">
          <mxGeometry width="30" height="30" as="geometry">
            <mxRectangle width="30" height="30" as="alternateBounds" />
          </mxGeometry>
        </mxCell>
        <mxCell id="tqVSBorQT68AYosV2dxL-16" value="LastModifiedDate" style="shape=partialRectangle;connectable=0;fillColor=none;top=0;left=0;bottom=0;right=0;align=left;spacingLeft=6;overflow=hidden;whiteSpace=wrap;html=1;rounded=1;labelBackgroundColor=none;strokeColor=#0F8B8D;fontColor=#143642;" vertex="1" parent="tqVSBorQT68AYosV2dxL-14">
          <mxGeometry x="30" width="150" height="30" as="geometry">
            <mxRectangle width="150" height="30" as="alternateBounds" />
          </mxGeometry>
        </mxCell>
        <mxCell id="tqVSBorQT68AYosV2dxL-33" value="Territory2" style="shape=table;startSize=30;container=1;collapsible=1;childLayout=tableLayout;fixedRows=1;rowLines=0;fontStyle=1;align=center;resizeLast=1;html=1;rounded=1;shadow=0;swimlaneLine=1;columnLines=1;arcSize=15;top=1;fillColor=#FAE5C7;labelBackgroundColor=none;strokeColor=#0F8B8D;fontColor=#143642;" vertex="1" parent="1">
          <mxGeometry x="580" y="141" width="200" height="180" as="geometry" />
        </mxCell>
        <mxCell id="tqVSBorQT68AYosV2dxL-34" value="" style="shape=tableRow;horizontal=0;startSize=0;swimlaneHead=0;swimlaneBody=0;fillColor=none;collapsible=0;dropTarget=0;points=[[0,0.5],[1,0.5]];portConstraint=eastwest;top=0;left=0;right=0;bottom=1;rounded=1;labelBackgroundColor=none;strokeColor=#0F8B8D;fontColor=#143642;" vertex="1" parent="tqVSBorQT68AYosV2dxL-33">
          <mxGeometry y="30" width="200" height="30" as="geometry" />
        </mxCell>
        <mxCell id="tqVSBorQT68AYosV2dxL-35" value="PK" style="shape=partialRectangle;connectable=0;fillColor=none;top=0;left=0;bottom=0;right=0;fontStyle=1;overflow=hidden;whiteSpace=wrap;html=1;rounded=1;labelBackgroundColor=none;strokeColor=#0F8B8D;fontColor=#143642;" vertex="1" parent="tqVSBorQT68AYosV2dxL-34">
          <mxGeometry width="30" height="30" as="geometry">
            <mxRectangle width="30" height="30" as="alternateBounds" />
          </mxGeometry>
        </mxCell>
        <mxCell id="tqVSBorQT68AYosV2dxL-36" value="Id" style="shape=partialRectangle;connectable=0;fillColor=none;top=0;left=0;bottom=0;right=0;align=left;spacingLeft=6;fontStyle=5;overflow=hidden;whiteSpace=wrap;html=1;rounded=1;labelBackgroundColor=none;strokeColor=#0F8B8D;fontColor=#143642;" vertex="1" parent="tqVSBorQT68AYosV2dxL-34">
          <mxGeometry x="30" width="170" height="30" as="geometry">
            <mxRectangle width="170" height="30" as="alternateBounds" />
          </mxGeometry>
        </mxCell>
        <mxCell id="tqVSBorQT68AYosV2dxL-37" value="" style="shape=tableRow;horizontal=0;startSize=0;swimlaneHead=0;swimlaneBody=0;fillColor=none;collapsible=0;dropTarget=0;points=[[0,0.5],[1,0.5]];portConstraint=eastwest;top=0;left=0;right=0;bottom=0;rounded=1;labelBackgroundColor=none;strokeColor=#0F8B8D;fontColor=#143642;" vertex="1" parent="tqVSBorQT68AYosV2dxL-33">
          <mxGeometry y="60" width="200" height="30" as="geometry" />
        </mxCell>
        <mxCell id="tqVSBorQT68AYosV2dxL-38" value="" style="shape=partialRectangle;connectable=0;fillColor=none;top=0;left=0;bottom=0;right=0;editable=1;overflow=hidden;whiteSpace=wrap;html=1;rounded=1;labelBackgroundColor=none;strokeColor=#0F8B8D;fontColor=#143642;" vertex="1" parent="tqVSBorQT68AYosV2dxL-37">
          <mxGeometry width="30" height="30" as="geometry">
            <mxRectangle width="30" height="30" as="alternateBounds" />
          </mxGeometry>
        </mxCell>
        <mxCell id="tqVSBorQT68AYosV2dxL-39" value="Name" style="shape=partialRectangle;connectable=0;fillColor=none;top=0;left=0;bottom=0;right=0;align=left;spacingLeft=6;overflow=hidden;whiteSpace=wrap;html=1;rounded=1;labelBackgroundColor=none;strokeColor=#0F8B8D;fontColor=#143642;" vertex="1" parent="tqVSBorQT68AYosV2dxL-37">
          <mxGeometry x="30" width="170" height="30" as="geometry">
            <mxRectangle width="170" height="30" as="alternateBounds" />
          </mxGeometry>
        </mxCell>
        <mxCell id="tqVSBorQT68AYosV2dxL-40" value="" style="shape=tableRow;horizontal=0;startSize=0;swimlaneHead=0;swimlaneBody=0;fillColor=none;collapsible=0;dropTarget=0;points=[[0,0.5],[1,0.5]];portConstraint=eastwest;top=0;left=0;right=0;bottom=0;rounded=1;labelBackgroundColor=none;strokeColor=#0F8B8D;fontColor=#143642;" vertex="1" parent="tqVSBorQT68AYosV2dxL-33">
          <mxGeometry y="90" width="200" height="30" as="geometry" />
        </mxCell>
        <mxCell id="tqVSBorQT68AYosV2dxL-41" value="" style="shape=partialRectangle;connectable=0;fillColor=none;top=0;left=0;bottom=0;right=0;editable=1;overflow=hidden;whiteSpace=wrap;html=1;rounded=1;labelBackgroundColor=none;strokeColor=#0F8B8D;fontColor=#143642;" vertex="1" parent="tqVSBorQT68AYosV2dxL-40">
          <mxGeometry width="30" height="30" as="geometry">
            <mxRectangle width="30" height="30" as="alternateBounds" />
          </mxGeometry>
        </mxCell>
        <mxCell id="tqVSBorQT68AYosV2dxL-42" value="ETM_TerrExtID__c" style="shape=partialRectangle;connectable=0;fillColor=none;top=0;left=0;bottom=0;right=0;align=left;spacingLeft=6;overflow=hidden;whiteSpace=wrap;html=1;rounded=1;labelBackgroundColor=none;strokeColor=#0F8B8D;fontColor=#143642;" vertex="1" parent="tqVSBorQT68AYosV2dxL-40">
          <mxGeometry x="30" width="170" height="30" as="geometry">
            <mxRectangle width="170" height="30" as="alternateBounds" />
          </mxGeometry>
        </mxCell>
        <mxCell id="tqVSBorQT68AYosV2dxL-43" value="" style="shape=tableRow;horizontal=0;startSize=0;swimlaneHead=0;swimlaneBody=0;fillColor=none;collapsible=0;dropTarget=0;points=[[0,0.5],[1,0.5]];portConstraint=eastwest;top=0;left=0;right=0;bottom=0;rounded=1;labelBackgroundColor=none;strokeColor=#0F8B8D;fontColor=#143642;" vertex="1" parent="tqVSBorQT68AYosV2dxL-33">
          <mxGeometry y="120" width="200" height="30" as="geometry" />
        </mxCell>
        <mxCell id="tqVSBorQT68AYosV2dxL-44" value="" style="shape=partialRectangle;connectable=0;fillColor=none;top=0;left=0;bottom=0;right=0;editable=1;overflow=hidden;whiteSpace=wrap;html=1;rounded=1;labelBackgroundColor=none;strokeColor=#0F8B8D;fontColor=#143642;" vertex="1" parent="tqVSBorQT68AYosV2dxL-43">
          <mxGeometry width="30" height="30" as="geometry">
            <mxRectangle width="30" height="30" as="alternateBounds" />
          </mxGeometry>
        </mxCell>
        <mxCell id="tqVSBorQT68AYosV2dxL-45" value="ETM_Sales_Team_Code__c" style="shape=partialRectangle;connectable=0;fillColor=none;top=0;left=0;bottom=0;right=0;align=left;spacingLeft=6;overflow=hidden;whiteSpace=wrap;html=1;rounded=1;labelBackgroundColor=none;strokeColor=#0F8B8D;fontColor=#143642;" vertex="1" parent="tqVSBorQT68AYosV2dxL-43">
          <mxGeometry x="30" width="170" height="30" as="geometry">
            <mxRectangle width="170" height="30" as="alternateBounds" />
          </mxGeometry>
        </mxCell>
        <mxCell id="tqVSBorQT68AYosV2dxL-46" value="" style="shape=tableRow;horizontal=0;startSize=0;swimlaneHead=0;swimlaneBody=0;fillColor=none;collapsible=0;dropTarget=0;points=[[0,0.5],[1,0.5]];portConstraint=eastwest;top=0;left=0;right=0;bottom=0;rounded=1;labelBackgroundColor=none;strokeColor=#0F8B8D;fontColor=#143642;" vertex="1" parent="tqVSBorQT68AYosV2dxL-33">
          <mxGeometry y="150" width="200" height="30" as="geometry" />
        </mxCell>
        <mxCell id="tqVSBorQT68AYosV2dxL-47" value="" style="shape=partialRectangle;connectable=0;fillColor=none;top=0;left=0;bottom=0;right=0;editable=1;overflow=hidden;whiteSpace=wrap;html=1;rounded=1;labelBackgroundColor=none;strokeColor=#0F8B8D;fontColor=#143642;" vertex="1" parent="tqVSBorQT68AYosV2dxL-46">
          <mxGeometry width="30" height="30" as="geometry">
            <mxRectangle width="30" height="30" as="alternateBounds" />
          </mxGeometry>
        </mxCell>
        <mxCell id="tqVSBorQT68AYosV2dxL-48" value="LastModifiedDate" style="shape=partialRectangle;connectable=0;fillColor=none;top=0;left=0;bottom=0;right=0;align=left;spacingLeft=6;overflow=hidden;whiteSpace=wrap;html=1;rounded=1;labelBackgroundColor=none;strokeColor=#0F8B8D;fontColor=#143642;" vertex="1" parent="tqVSBorQT68AYosV2dxL-46">
          <mxGeometry x="30" width="170" height="30" as="geometry">
            <mxRectangle width="170" height="30" as="alternateBounds" />
          </mxGeometry>
        </mxCell>
        <mxCell id="tqVSBorQT68AYosV2dxL-17" value="Group" style="shape=table;startSize=30;container=1;collapsible=1;childLayout=tableLayout;fixedRows=1;rowLines=0;fontStyle=1;align=center;resizeLast=1;html=1;rounded=1;shadow=0;swimlaneLine=1;columnLines=1;arcSize=15;top=1;fillColor=#FAE5C7;labelBackgroundColor=none;strokeColor=#0F8B8D;fontColor=#143642;" vertex="1" parent="1">
          <mxGeometry x="320" y="141" width="180" height="180" as="geometry" />
        </mxCell>
        <mxCell id="tqVSBorQT68AYosV2dxL-18" value="" style="shape=tableRow;horizontal=0;startSize=0;swimlaneHead=0;swimlaneBody=0;fillColor=none;collapsible=0;dropTarget=0;points=[[0,0.5],[1,0.5]];portConstraint=eastwest;top=0;left=0;right=0;bottom=1;rounded=1;labelBackgroundColor=none;strokeColor=#0F8B8D;fontColor=#143642;" vertex="1" parent="tqVSBorQT68AYosV2dxL-17">
          <mxGeometry y="30" width="180" height="30" as="geometry" />
        </mxCell>
        <mxCell id="tqVSBorQT68AYosV2dxL-19" value="PK" style="shape=partialRectangle;connectable=0;fillColor=none;top=0;left=0;bottom=0;right=0;fontStyle=1;overflow=hidden;whiteSpace=wrap;html=1;rounded=1;labelBackgroundColor=none;strokeColor=#0F8B8D;fontColor=#143642;" vertex="1" parent="tqVSBorQT68AYosV2dxL-18">
          <mxGeometry width="30" height="30" as="geometry">
            <mxRectangle width="30" height="30" as="alternateBounds" />
          </mxGeometry>
        </mxCell>
        <mxCell id="tqVSBorQT68AYosV2dxL-20" value="Id" style="shape=partialRectangle;connectable=0;fillColor=none;top=0;left=0;bottom=0;right=0;align=left;spacingLeft=6;fontStyle=5;overflow=hidden;whiteSpace=wrap;html=1;rounded=1;labelBackgroundColor=none;strokeColor=#0F8B8D;fontColor=#143642;" vertex="1" parent="tqVSBorQT68AYosV2dxL-18">
          <mxGeometry x="30" width="150" height="30" as="geometry">
            <mxRectangle width="150" height="30" as="alternateBounds" />
          </mxGeometry>
        </mxCell>
        <mxCell id="tqVSBorQT68AYosV2dxL-21" value="" style="shape=tableRow;horizontal=0;startSize=0;swimlaneHead=0;swimlaneBody=0;fillColor=none;collapsible=0;dropTarget=0;points=[[0,0.5],[1,0.5]];portConstraint=eastwest;top=0;left=0;right=0;bottom=0;rounded=1;labelBackgroundColor=none;strokeColor=#0F8B8D;fontColor=#143642;" vertex="1" parent="tqVSBorQT68AYosV2dxL-17">
          <mxGeometry y="60" width="180" height="30" as="geometry" />
        </mxCell>
        <mxCell id="tqVSBorQT68AYosV2dxL-22" value="FK" style="shape=partialRectangle;connectable=0;fillColor=none;top=0;left=0;bottom=0;right=0;editable=1;overflow=hidden;whiteSpace=wrap;html=1;fontStyle=1;rounded=1;labelBackgroundColor=none;strokeColor=#0F8B8D;fontColor=#143642;" vertex="1" parent="tqVSBorQT68AYosV2dxL-21">
          <mxGeometry width="30" height="30" as="geometry">
            <mxRectangle width="30" height="30" as="alternateBounds" />
          </mxGeometry>
        </mxCell>
        <mxCell id="tqVSBorQT68AYosV2dxL-23" value="RelatedId" style="shape=partialRectangle;connectable=0;fillColor=none;top=0;left=0;bottom=0;right=0;align=left;spacingLeft=6;overflow=hidden;whiteSpace=wrap;html=1;fontStyle=1;rounded=1;labelBackgroundColor=none;strokeColor=#0F8B8D;fontColor=#143642;" vertex="1" parent="tqVSBorQT68AYosV2dxL-21">
          <mxGeometry x="30" width="150" height="30" as="geometry">
            <mxRectangle width="150" height="30" as="alternateBounds" />
          </mxGeometry>
        </mxCell>
        <mxCell id="tqVSBorQT68AYosV2dxL-24" value="" style="shape=tableRow;horizontal=0;startSize=0;swimlaneHead=0;swimlaneBody=0;fillColor=none;collapsible=0;dropTarget=0;points=[[0,0.5],[1,0.5]];portConstraint=eastwest;top=0;left=0;right=0;bottom=0;rounded=1;labelBackgroundColor=none;strokeColor=#0F8B8D;fontColor=#143642;" vertex="1" parent="tqVSBorQT68AYosV2dxL-17">
          <mxGeometry y="90" width="180" height="30" as="geometry" />
        </mxCell>
        <mxCell id="tqVSBorQT68AYosV2dxL-25" value="" style="shape=partialRectangle;connectable=0;fillColor=none;top=0;left=0;bottom=0;right=0;editable=1;overflow=hidden;whiteSpace=wrap;html=1;rounded=1;labelBackgroundColor=none;strokeColor=#0F8B8D;fontColor=#143642;" vertex="1" parent="tqVSBorQT68AYosV2dxL-24">
          <mxGeometry width="30" height="30" as="geometry">
            <mxRectangle width="30" height="30" as="alternateBounds" />
          </mxGeometry>
        </mxCell>
        <mxCell id="tqVSBorQT68AYosV2dxL-26" value="Type" style="shape=partialRectangle;connectable=0;fillColor=none;top=0;left=0;bottom=0;right=0;align=left;spacingLeft=6;overflow=hidden;whiteSpace=wrap;html=1;rounded=1;labelBackgroundColor=none;strokeColor=#0F8B8D;fontColor=#143642;" vertex="1" parent="tqVSBorQT68AYosV2dxL-24">
          <mxGeometry x="30" width="150" height="30" as="geometry">
            <mxRectangle width="150" height="30" as="alternateBounds" />
          </mxGeometry>
        </mxCell>
        <mxCell id="tqVSBorQT68AYosV2dxL-27" value="" style="shape=tableRow;horizontal=0;startSize=0;swimlaneHead=0;swimlaneBody=0;fillColor=none;collapsible=0;dropTarget=0;points=[[0,0.5],[1,0.5]];portConstraint=eastwest;top=0;left=0;right=0;bottom=0;rounded=1;labelBackgroundColor=none;strokeColor=#0F8B8D;fontColor=#143642;" vertex="1" parent="tqVSBorQT68AYosV2dxL-17">
          <mxGeometry y="120" width="180" height="30" as="geometry" />
        </mxCell>
        <mxCell id="tqVSBorQT68AYosV2dxL-28" value="" style="shape=partialRectangle;connectable=0;fillColor=none;top=0;left=0;bottom=0;right=0;editable=1;overflow=hidden;whiteSpace=wrap;html=1;rounded=1;labelBackgroundColor=none;strokeColor=#0F8B8D;fontColor=#143642;" vertex="1" parent="tqVSBorQT68AYosV2dxL-27">
          <mxGeometry width="30" height="30" as="geometry">
            <mxRectangle width="30" height="30" as="alternateBounds" />
          </mxGeometry>
        </mxCell>
        <mxCell id="tqVSBorQT68AYosV2dxL-29" value="" style="shape=partialRectangle;connectable=0;fillColor=none;top=0;left=0;bottom=0;right=0;align=left;spacingLeft=6;overflow=hidden;whiteSpace=wrap;html=1;rounded=1;labelBackgroundColor=none;strokeColor=#0F8B8D;fontColor=#143642;" vertex="1" parent="tqVSBorQT68AYosV2dxL-27">
          <mxGeometry x="30" width="150" height="30" as="geometry">
            <mxRectangle width="150" height="30" as="alternateBounds" />
          </mxGeometry>
        </mxCell>
        <mxCell id="tqVSBorQT68AYosV2dxL-30" value="" style="shape=tableRow;horizontal=0;startSize=0;swimlaneHead=0;swimlaneBody=0;fillColor=none;collapsible=0;dropTarget=0;points=[[0,0.5],[1,0.5]];portConstraint=eastwest;top=0;left=0;right=0;bottom=0;rounded=1;labelBackgroundColor=none;strokeColor=#0F8B8D;fontColor=#143642;" vertex="1" parent="tqVSBorQT68AYosV2dxL-17">
          <mxGeometry y="150" width="180" height="30" as="geometry" />
        </mxCell>
        <mxCell id="tqVSBorQT68AYosV2dxL-31" value="" style="shape=partialRectangle;connectable=0;fillColor=none;top=0;left=0;bottom=0;right=0;editable=1;overflow=hidden;whiteSpace=wrap;html=1;rounded=1;labelBackgroundColor=none;strokeColor=#0F8B8D;fontColor=#143642;" vertex="1" parent="tqVSBorQT68AYosV2dxL-30">
          <mxGeometry width="30" height="30" as="geometry">
            <mxRectangle width="30" height="30" as="alternateBounds" />
          </mxGeometry>
        </mxCell>
        <mxCell id="tqVSBorQT68AYosV2dxL-32" value="" style="shape=partialRectangle;connectable=0;fillColor=none;top=0;left=0;bottom=0;right=0;align=left;spacingLeft=6;overflow=hidden;whiteSpace=wrap;html=1;rounded=1;labelBackgroundColor=none;strokeColor=#0F8B8D;fontColor=#143642;" vertex="1" parent="tqVSBorQT68AYosV2dxL-30">
          <mxGeometry x="30" width="150" height="30" as="geometry">
            <mxRectangle width="150" height="30" as="alternateBounds" />
          </mxGeometry>
        </mxCell>
        <mxCell id="tqVSBorQT68AYosV2dxL-49" value="" style="edgeStyle=entityRelationEdgeStyle;fontSize=12;html=1;endArrow=ERmandOne;startArrow=ERmandOne;rounded=1;entryX=0;entryY=0.5;entryDx=0;entryDy=0;labelBackgroundColor=none;strokeColor=#A8201A;fontColor=default;" edge="1" parent="1" source="tqVSBorQT68AYosV2dxL-8" target="tqVSBorQT68AYosV2dxL-18">
          <mxGeometry width="100" height="100" relative="1" as="geometry">
            <mxPoint x="230" y="360" as="sourcePoint" />
            <mxPoint x="330" y="260" as="targetPoint" />
          </mxGeometry>
        </mxCell>
        <mxCell id="tqVSBorQT68AYosV2dxL-50" value="" style="edgeStyle=entityRelationEdgeStyle;fontSize=12;html=1;endArrow=ERmandOne;startArrow=ERmandOne;rounded=1;entryX=0;entryY=0.5;entryDx=0;entryDy=0;exitX=1;exitY=0.5;exitDx=0;exitDy=0;labelBackgroundColor=none;strokeColor=#A8201A;fontColor=default;" edge="1" parent="1" source="tqVSBorQT68AYosV2dxL-21" target="tqVSBorQT68AYosV2dxL-34">
          <mxGeometry width="100" height="100" relative="1" as="geometry">
            <mxPoint x="510" y="219" as="sourcePoint" />
            <mxPoint x="570" y="160" as="targetPoint" />
            <Array as="points">
              <mxPoint x="540" y="200" />
            </Array>
          </mxGeometry>
        </mxCell>
      </root>
    </mxGraphModel>
  </diagram>
</mxfile>
